<svg width="250" height="54" viewBox="0 0 250 54" fill="none" xmlns="http://www.w3.org/2000/svg">
<g clip-path="url(#clip0_1456_79)">
<path d="M176.062 13.0316L176.036 13.0944C175.813 13.7154 174.511 16.8279 170.949 16.8279C167.287 16.8279 166.137 13.3985 166.018 13.0078C165.99 12.9349 165.972 12.8408 165.963 12.791L165.922 12.543H166.87L166.91 12.7017C166.943 12.8314 167.761 15.8849 170.949 15.8849C174.165 15.8849 175.129 12.8491 175.169 12.7194L175.237 12.5305L175.59 12.5453L176.149 12.539L176.117 12.7991C176.108 12.857 176.09 12.9547 176.062 13.0316ZM171.027 0.000595093C166.835 0.000595093 163.437 4.34066 163.437 9.69379C163.437 13.0951 164.81 16.0863 166.887 17.8158C168.067 18.8206 168.734 20.2318 168.734 21.9986L168.385 51.9314C168.383 51.9599 168.376 51.987 168.376 52.0162V52.5732C168.376 53.2688 168.945 53.8379 169.64 53.8379H171.976C172.672 53.8379 173.241 53.2688 173.241 52.5732V52.0162C173.241 51.9662 173.231 51.9189 173.226 51.8704C173.158 47.3105 172.723 22.9669 172.723 22.1445C172.723 20.4063 173.741 18.8303 175.256 17.7429C177.283 16.0021 178.617 13.0468 178.617 9.69379C178.617 4.34066 175.219 0.000595093 171.027 0.000595093Z" fill="#231F20"/>
<path d="M11.1573 42.3507C14.3732 42.3507 15.6835 39.6502 15.6835 33.4566C15.6835 27.4212 14.3337 25.2772 11.4745 25.2772C8.25877 25.2772 6.27359 28.4535 6.27359 31.8285V36.4345C6.27359 39.3333 7.74272 42.3507 11.1573 42.3507ZM0.318198 51.2046H2.77965V25.4756H0V24.8802H6.19405V28.6924H6.27359C7.10737 26.3097 8.89412 24.6022 12.1102 24.6022C16.9938 24.6022 19.4159 28.0166 19.4159 33.5357C19.4159 39.5315 16.2791 43.0254 11.5149 43.0254C8.65567 43.0254 7.06738 41.4765 6.35313 39.8095H6.27359V51.2046H8.73505V51.7998H0.318198V51.2046Z" fill="#231F20"/>
<path d="M27.4343 42.3507C28.3077 42.3507 29.221 41.9929 30.0147 41.4369C31.1267 40.6431 32.0001 39.4915 32.0001 38.5788V33.4966H31.2858C29.5784 33.4966 28.1888 33.7746 27.1563 34.3697C25.8462 35.124 25.1311 36.4741 25.1311 38.6579C25.1311 41.2782 25.9649 42.3507 27.4343 42.3507ZM31.6032 32.9006H32.0001V28.7315C32.0001 26.389 31.3651 25.1187 28.7448 25.1187C26.3225 25.1187 25.0122 26.0316 25.0122 28.1363C25.0122 29.4468 25.5682 30.5578 26.8783 30.2802V30.5978C26.8783 30.5978 26.1636 30.8358 25.3296 30.8358C23.5428 30.8358 22.3121 29.8435 22.3121 28.2551C22.3121 26.0716 24.5751 24.6022 28.7448 24.6022C33.549 24.6022 35.494 26.5874 35.494 30.0418V40.4046C35.494 41.5563 35.7327 42.1914 36.5664 42.1914C37.9161 42.1914 38.4325 40.8809 38.4325 39.4519H39.0281C39.0281 41.8343 37.7176 43.0254 35.8513 43.0254C33.7072 43.0254 32.4765 41.7947 32.3576 39.7695H32.2781C31.4842 41.3182 29.6573 43.0254 26.7192 43.0254C24.1782 43.0254 21.3594 41.8743 21.3594 38.5788C21.3594 34.29 26.7989 32.9006 31.6032 32.9006Z" fill="#231F20"/>
<path d="M38.7882 42.1529H41.6066V25.4762H38.4307V24.8808H45.0216V29.0497H45.1012C45.1012 29.0497 46.2919 24.6028 51.4934 24.6028C55.0667 24.6028 56.8532 25.9927 57.1309 29.0497H57.2103C57.2103 29.0497 58.4018 24.6028 63.6028 24.6028C67.5339 24.6028 69.3209 26.2707 69.3209 30.0424V42.1529H72.0994V42.748H63.3251V42.1529H65.8269V29.3277C65.8269 26.3502 65.152 25.318 63.0073 25.318C58.7196 25.318 57.2898 29.7644 57.2103 31.9089V42.1529H59.9899V42.748H51.2158V42.1529H53.7164V29.3277C53.7164 26.3502 53.0417 25.318 50.8976 25.318C46.5303 25.318 45.1012 30.0028 45.1012 32.0676V42.1529H47.5626V42.748H38.7882V42.1529Z" fill="#231F20"/>
<path d="M83.0558 42.3507C86.2715 42.3507 87.5819 39.6502 87.5819 33.4566C87.5819 27.4212 86.2321 25.2772 83.373 25.2772C80.1573 25.2772 78.172 28.4535 78.172 31.8285V36.4345C78.172 39.3333 79.6413 42.3507 83.0558 42.3507ZM72.2162 51.2046H74.678V25.4756H71.8984V24.8802H78.0926V28.6924H78.172C79.0058 26.3097 80.7928 24.6022 84.0085 24.6022C88.8923 24.6022 91.3147 28.0166 91.3147 33.5357C91.3147 39.5315 88.1774 43.0254 83.413 43.0254C80.5539 43.0254 78.9658 41.4765 78.2515 39.8095H78.172V51.2046H80.6334V51.7998H72.2162V51.2046Z" fill="#231F20"/>
<path d="M105.13 32.7423V31.1538C105.13 27.4212 104.375 25.1187 101.556 25.1187C98.5788 25.1187 97.3873 27.7392 97.2684 32.7423H105.13ZM101.556 24.6022C106.043 24.6022 108.584 26.8261 108.584 31.749V33.3373H97.2284V33.9328C97.2284 40.6827 98.8165 42.4299 101.954 42.4299C104.812 42.4299 107.552 40.564 107.552 37.6256H108.187C108.187 39.9282 106.678 41.7149 104.455 42.549C103.581 42.8665 102.787 43.0254 101.596 43.0254C96.7124 43.0254 93.5361 40.3655 93.5361 33.8537C93.5361 27.1041 96.7923 24.6022 101.556 24.6022Z" fill="#231F20"/>
<path d="M109.853 24.8808H116.047V29.0897H116.126C116.841 27.0249 118.429 24.6028 121.248 24.6028C123.352 24.6028 125.019 25.9927 125.019 28.2161C125.019 30.1617 123.789 31.3529 122.201 31.3529C121.764 31.3529 121.368 31.3529 120.851 31.1145V30.7969C122.002 30.9951 122.201 29.5662 122.201 28.4541C122.201 26.4691 121.566 25.4369 120.374 25.4369C119.262 25.4369 118.23 26.3896 117.476 27.6205C116.603 29.0497 116.126 30.7969 116.126 32.0276V42.1529H119.303V42.748H109.853V42.1529H112.632V25.4762H109.853V24.8808Z" fill="#231F20"/>
<path d="M137.526 32.7423V31.1538C137.526 27.4212 136.772 25.1187 133.953 25.1187C130.975 25.1187 129.783 27.7392 129.665 32.7423H137.526ZM133.953 24.6022C138.439 24.6022 140.98 26.8261 140.98 31.749V33.3373H129.624V33.9328C129.624 40.6827 131.213 42.4299 134.35 42.4299C137.208 42.4299 139.948 40.564 139.948 37.6256H140.583C140.583 39.9282 139.075 41.7149 136.851 42.549C135.977 42.8665 135.183 43.0254 133.993 43.0254C129.109 43.0254 125.933 40.3655 125.933 33.8537C125.933 27.1041 129.188 24.6022 133.953 24.6022Z" fill="#231F20"/>
<path d="M151.024 42.3507C154.24 42.3507 156.226 39.1739 156.226 35.7987V31.1934C156.226 28.2946 154.756 25.2772 151.342 25.2772C148.126 25.2772 146.816 27.977 146.816 34.1713C146.816 40.2062 148.165 42.3507 151.024 42.3507ZM150.984 24.6022C153.843 24.6022 155.431 26.1509 156.146 27.8184H156.226V14.8348H153.446V14.2394H159.72V42.1523H162.499V42.7474H156.305V38.9359H156.226C155.391 41.3182 153.605 43.0254 150.389 43.0254C145.505 43.0254 143.083 39.6113 143.083 34.0917C143.083 28.0963 146.219 24.6022 150.984 24.6022Z" fill="#231F20"/>
<path d="M187.73 24.6784C191.144 24.6784 193.764 26.2666 193.764 28.5296C193.764 29.4434 193.129 31.1108 190.985 31.1108C190.548 31.1108 189.913 31.0317 189.397 30.8724V30.5548C190.667 30.8328 191.144 29.5621 191.144 28.2516C191.144 26.5842 189.913 25.1948 187.73 25.1948C184.592 25.1948 183.361 27.4973 183.361 33.93C183.361 40.2429 184.592 42.506 187.73 42.506C189.039 42.506 190.35 42.188 191.461 41.1555C192.374 40.3221 192.97 39.1314 192.97 37.6618H193.605C193.605 39.1314 193.01 40.5605 191.898 41.5528C190.865 42.506 189.357 43.1016 187.332 43.1016C183.044 43.1016 179.669 40.4012 179.669 34.0492C179.669 27.8549 182.925 24.6784 187.73 24.6784Z" fill="#231F20"/>
<path d="M194.478 42.2277H197.258V14.9108H194.478V14.3154H200.751V29.0058H200.831C200.831 29.0058 202.062 24.6781 207.144 24.6781C211.075 24.6781 212.861 26.3459 212.861 30.1178V42.2277H215.64V42.8232H206.866V42.2277H209.368V29.4029C209.368 26.4254 208.692 25.3932 206.548 25.3932C202.141 25.3932 200.751 30.038 200.751 32.1028V42.2277H203.253V42.8232H194.478V42.2277Z" fill="#231F20"/>
<path d="M228.145 32.8184V31.2301C228.145 27.4973 227.391 25.1948 224.572 25.1948C221.594 25.1948 220.403 27.8153 220.284 32.8184H228.145ZM224.572 24.6784C229.058 24.6784 231.6 26.9022 231.6 31.8251V33.4136H220.244V34.0092C220.244 40.7588 221.832 42.506 224.969 42.506C227.827 42.506 230.567 40.6401 230.567 37.7017H231.203C231.203 40.0045 229.694 41.7912 227.471 42.6253C226.597 42.9422 225.803 43.1016 224.612 43.1016C219.728 43.1016 216.552 40.4412 216.552 33.93C216.552 27.18 219.807 24.6784 224.572 24.6784Z" fill="#231F20"/>
<path d="M232.868 42.2277H235.647V25.5514H232.868V24.956H235.647V21.3826C235.647 16.8966 238.228 13.7994 242.874 13.7994C245.812 13.7994 248.194 15.2288 248.194 17.2531C248.194 18.6431 247.162 19.8343 245.216 19.8343C244.779 19.8343 244.224 19.755 243.628 19.5958V19.2787C245.177 19.5958 245.653 17.9682 245.653 17.0155C245.653 15.5461 244.62 14.3154 242.874 14.3154C240.174 14.3154 239.142 16.0626 239.142 19.8343V24.956H243.747V25.5514H239.142V42.2277H242.318V42.8232H232.868V42.2277Z" fill="#231F20"/>
<path d="M247.708 41.8537C247.964 41.8537 248.103 41.6678 248.103 41.4002C248.103 41.1326 247.952 41.0159 247.708 41.0159H247.371V41.8537H247.708ZM246.44 42.9704H246.813V41.0045H246.44V40.7136H247.58C248.348 40.7136 248.651 40.9115 248.651 41.3533C248.651 41.749 248.407 41.9697 248.022 42.0162V42.051C248.848 42.2259 248.325 42.9464 248.755 42.9464H248.813L248.801 43.1911C248.801 43.1911 248.72 43.2609 248.546 43.2609C247.674 43.2609 248.185 42.1328 247.533 42.1328H247.371V42.9704H247.766V43.249H246.44V42.9704ZM249.569 41.9818C249.569 40.9115 248.684 39.9924 247.638 39.9924C246.592 39.9924 245.742 40.9115 245.742 41.9818C245.742 43.063 246.592 43.9705 247.638 43.9705C248.684 43.9705 249.569 43.063 249.569 41.9818ZM245.312 41.9818C245.312 40.7022 246.382 39.6318 247.65 39.6318C248.929 39.6318 249.999 40.7136 249.999 41.9818C249.999 43.249 248.929 44.3193 247.65 44.3193C246.382 44.3193 245.312 43.2609 245.312 41.9818Z" fill="#231F20"/>
</g>
<defs>
<clipPath id="clip0_1456_79">
<rect width="250" height="54" fill="white"/>
</clipPath>
</defs>
</svg>
